<?xml version="1.0" encoding="UTF-8"?>
<svg xmlns="http://www.w3.org/2000/svg" xmlns:xlink="http://www.w3.org/1999/xlink" viewBox="0 0 64 64" width="64px" height="64px">
<g id="surface125650440">
<path style=" stroke:none;fill-rule:nonzero;fill:rgb(100%,100%,100%);fill-opacity:1;" d="M 27.554688 9.777344 C 17.753906 9.777344 9.777344 17.753906 9.777344 27.554688 C 9.777344 37.355469 17.753906 45.332031 27.554688 45.332031 C 31.089844 45.332031 34.375 44.285156 37.144531 42.5 L 48.644531 54 C 50.125 55.480469 52.523438 55.480469 54 54 C 55.480469 52.523438 55.480469 50.125 54 48.644531 L 42.5 37.144531 C 44.285156 34.375 45.332031 31.089844 45.332031 27.554688 C 45.332031 17.753906 37.355469 9.777344 27.554688 9.777344 Z M 27.554688 16.890625 C 33.4375 16.890625 38.222656 21.675781 38.222656 27.554688 C 38.222656 33.4375 33.4375 38.222656 27.554688 38.222656 C 21.675781 38.222656 16.890625 33.4375 16.890625 27.554688 C 16.890625 21.675781 21.675781 16.890625 27.554688 16.890625 Z M 27.554688 16.890625 "/>
</g>
</svg>
