<?xml version="1.0" encoding="UTF-8" standalone="no"?>
<svg
   viewBox="0 0 128 128"
   width="128px"
   height="128px"
   version="1.1"
   id="svg5"
   sodipodi:docname="steam.svg"
   inkscape:version="1.1.2 (0a00cf5339, 2022-02-04)"
   xmlns:inkscape="http://www.inkscape.org/namespaces/inkscape"
   xmlns:sodipodi="http://sodipodi.sourceforge.net/DTD/sodipodi-0.dtd"
   xmlns="http://www.w3.org/2000/svg"
   xmlns:svg="http://www.w3.org/2000/svg">
  <defs
     id="defs9" />
  <sodipodi:namedview
     id="namedview7"
     pagecolor="#ffffff"
     bordercolor="#666666"
     borderopacity="1.0"
     inkscape:pageshadow="2"
     inkscape:pageopacity="0.0"
     inkscape:pagecheckerboard="0"
     showgrid="false"
     inkscape:zoom="2.9112912"
     inkscape:cx="71.274217"
     inkscape:cy="64.232668"
     inkscape:window-width="1366"
     inkscape:window-height="699"
     inkscape:window-x="0"
     inkscape:window-y="32"
     inkscape:window-maximized="1"
     inkscape:current-layer="svg5" />
  <g
     id="surface208792227"
     style="fill:#ffffff"
     transform="matrix(1.2191167,0,0,1.2191167,-14.023467,-14.023467)">
    <path
       style="fill:#ffffff;fill-opacity:1;fill-rule:nonzero;stroke:none"
       d="m 64,12 c -28.71875,0 -52,23.28125 -52,52 0,0.472656 0.02344,0.941406 0.03516,1.414062 L 37.3125,74.28125 C 40.238281,70.46875 44.824219,68 50,68 c 0.363281,0 0.71875,0.03125 1.078125,0.05469 L 58.121094,55.378906 C 58.042969,54.597656 58,53.804688 58,53 58,40.296875 68.296875,30 81,30 c 12.703125,0 23,10.296875 23,23 0,12.703125 -10.296875,23 -23,23 -1.257812,0 -2.480469,-0.125 -3.683594,-0.320312 l -11.375,7.109374 C 65.96875,83.191406 66,83.589844 66,84 c 0,8.835938 -7.164062,16 -16,16 -8.835938,0 -16,-7.164062 -16,-16 0,-0.515625 0.03125,-1.023438 0.07813,-1.527344 L 12.652344,72.226562 C 16.597656,97.035156 38.082031,116 64,116 92.71875,116 116,92.71875 116,64 116,35.28125 92.71875,12 64,12 Z m 17,26 c -8.285156,0 -15,6.714844 -15,15 0,8.285156 6.714844,15 15,15 8.285156,0 15,-6.714844 15,-15 0,-8.285156 -6.714844,-15 -15,-15 z m 0,8 c 3.867188,0 7,3.132812 7,7 0,3.867188 -3.132812,7 -7,7 -3.867188,0 -7,-3.132812 -7,-7 0,-3.867188 3.132812,-7 7,-7 z M 50,74 c -2.492188,0 -4.738281,0.945312 -6.492188,2.453125 l 6.871094,2.410156 C 52.53125,79.539062 54,81.535156 54,83.792969 c 0,3.804687 -3.96875,6.308593 -7.402344,4.667969 L 40.140625,85.371094 C 40.8125,90.238281 44.945312,94 50,94 55.523438,94 60,89.523438 60,84 60,78.476562 55.523438,74 50,74 Z m 0,0"
       id="path2" />
  </g>
</svg>
