<?xml version="1.0" encoding="UTF-8"?>
<svg viewBox="0 0 128 128" xmlns="http://www.w3.org/2000/svg">
<g transform="matrix(1.3247 0 0 1.3247 -20.783 -20.855)">
<path d="m97.168 33.914s14.832 17.18 14.832 48.125v6.4883s-18.73 12.207-24.438 12.207l-5.5391-8.0547c3.4414-1.5391 8.1367-4.2148 8.1367-4.2148l-1.7148-1.3281s-10.977 5.082-24.445 5.082c-13.465 0-24.441-5.082-24.441-5.082l-1.7148 1.3281s4.6953 2.6758 8.1367 4.2148l-5.5391 8.0547c-5.7109 0-24.441-12.207-24.441-12.207v-6.4883c0-30.945 14.832-48.125 14.832-48.125s10.145-4.9102 19.516-6.2031l2.9062 5.5117s4.6211-1.0703 10.746-1.0703 10.746 1.0703 10.746 1.0703l2.9062-5.5117c9.3711 1.293 19.516 6.2031 19.516 6.2031zm-49.148 43.602c4.7188 0 8.5469-4.2969 8.5469-9.6016 0-5.3008-3.8281-9.6016-8.5469-9.6016-4.7227 0-8.5508 4.3008-8.5508 9.6016 0 5.3047 3.8281 9.6016 8.5508 9.6016zm31.961 0c4.7227 0 8.5508-4.2969 8.5508-9.6016 0-5.3008-3.8281-9.6016-8.5508-9.6016-4.7188 0-8.5469 4.3008-8.5469 9.6016 0 5.3047 3.8281 9.6016 8.5469 9.6016z" fill="#fff"/>
</g>
</svg>
