<?xml version="1.0" encoding="UTF-8"?>
<svg viewBox="0 0 128 128" xmlns="http://www.w3.org/2000/svg">
<g transform="matrix(1.4912 0 0 1.4912 -31.434 -30.918)">
<path d="m64 21.332c23.562 0 42.668 19.105 42.668 42.668 0 18.945-12.352 34.996-29.441 40.566 0.0078-0.0156 0.01563-0.0391 0.01563-0.0391s-2.8828-1.3516-2.8203-3.7578c0.06641-2.6523 0-8.8398 0-11.109 0-3.8984-2.4688-6.6602-2.4688-6.6602s19.352 0.21484 19.352-20.43c0-7.9648-4.1641-12.109-4.1641-12.109s2.1875-8.5039-0.75781-12.109c-3.3008-0.35547-9.2109 3.1523-11.734 4.793 0 0-4-1.6406-10.648-1.6406-6.6523 0-10.652 1.6406-10.652 1.6406-2.5234-1.6406-8.4336-5.1484-11.734-4.793-2.9414 3.6055-0.75781 12.109-0.75781 12.109s-4.1641 4.1445-4.1641 12.109c-4e-6 20.645 19.352 20.43 19.352 20.43s-1.9492 2.2031-2.375 5.4414c-1.3516 0.45703-3.3359 1.0234-4.9414 1.0234-4.1992 0-7.3945-4.082-8.5664-5.9688-1.1523-1.8633-3.5195-3.4258-5.7266-3.4258-1.4492 0-2.1602 0.72656-2.1602 1.5547 0 0.83203 2.0391 1.4102 3.3828 2.9492 2.832 3.2461 2.7812 10.551 12.879 10.551 1.0977 0 3.3359-0.27344 5.0195-0.49609-0.01172 2.2969-0.01172 4.7227 0.02344 6.1406 0.05859 2.4062-2.8203 3.7578-2.8203 3.7578s0.0078 0.0234 0.01172 0.0391c-17.086-5.5703-29.438-21.621-29.438-40.566 0-23.562 19.102-42.668 42.668-42.668z" fill="#fff"/>
</g>
</svg>
