<?xml version="1.0" encoding="UTF-8"?>
<svg xmlns="http://www.w3.org/2000/svg" xmlns:xlink="http://www.w3.org/1999/xlink" viewBox="0 0 128 128" width="128px" height="128px">
<g id="surface208755093">
<path style=" stroke:none;fill-rule:nonzero;fill:rgb(100%,100%,100%);fill-opacity:1;" d="M 64 21.332031 C 40.4375 21.332031 21.332031 40.4375 21.332031 64 C 21.332031 87.5625 40.4375 106.667969 64 106.667969 C 87.5625 106.667969 106.667969 87.5625 106.667969 64 C 106.667969 40.4375 87.5625 21.332031 64 21.332031 Z M 66.964844 38.375 C 67.132812 38.34375 67.3125 38.347656 67.488281 38.386719 L 77.949219 40.476562 C 78.613281 39.308594 79.824219 38.523438 81.171875 38.386719 C 83.515625 38.132812 85.613281 39.828125 85.867188 42.171875 C 86.121094 44.519531 84.429688 46.617188 82.082031 46.871094 C 79.738281 47.125 77.636719 45.425781 77.382812 43.082031 L 68.253906 41.164062 L 65.484375 54.476562 C 71.351562 54.605469 77.054688 56.417969 81.914062 59.726562 C 83.015625 58.675781 84.46875 58.050781 85.996094 57.996094 C 89.445312 57.882812 92.328125 60.5625 92.453125 64 C 92.496094 66.398438 91.148438 68.601562 89.007812 69.671875 C 89.050781 70.300781 89.050781 70.925781 89.007812 71.550781 C 89.007812 81.117188 77.871094 88.882812 64.136719 88.882812 C 50.398438 88.882812 39.265625 81.109375 39.265625 71.550781 C 39.226562 70.925781 39.226562 70.300781 39.265625 69.671875 C 38.644531 69.398438 38.078125 69.007812 37.589844 68.550781 C 35.078125 66.195312 34.960938 62.25 37.316406 59.746094 C 39.671875 57.234375 43.613281 57.117188 46.117188 59.472656 C 51.039062 56.140625 56.820312 54.316406 62.761719 54.222656 L 65.910156 39.417969 L 65.910156 39.390625 C 66.03125 38.851562 66.457031 38.46875 66.964844 38.375 Z M 54.054688 64 C 51.699219 64 49.789062 65.910156 49.789062 68.265625 C 49.789062 70.625 51.699219 72.539062 54.054688 72.539062 C 56.414062 72.539062 58.328125 70.625 58.328125 68.265625 C 58.328125 65.910156 56.414062 64 54.054688 64 Z M 73.820312 64 C 71.460938 64 69.550781 65.910156 69.550781 68.265625 C 69.550781 70.625 71.460938 72.539062 73.820312 72.539062 C 76.175781 72.539062 78.089844 70.625 78.089844 68.265625 C 78.089844 65.910156 76.175781 64 73.820312 64 Z M 54.375 78.117188 C 54.117188 78.117188 53.863281 78.207031 53.648438 78.382812 C 53.160156 78.785156 53.085938 79.519531 53.488281 80.007812 C 56.523438 82.285156 60.234375 83.453125 64.03125 83.292969 C 67.828125 83.453125 71.539062 82.289062 74.574219 80.007812 L 74.574219 80.171875 C 75.039062 79.714844 75.050781 78.953125 74.59375 78.484375 C 74.136719 78.019531 73.375 78.007812 72.910156 78.464844 C 70.3125 80.320312 67.171875 81.234375 63.984375 81.066406 C 60.804688 81.214844 57.679688 80.257812 55.109375 78.382812 C 54.894531 78.207031 54.632812 78.117188 54.375 78.117188 Z M 54.375 78.117188 "/>
</g>
</svg>
