<?xml version="1.0" encoding="UTF-8" standalone="no"?>
<svg
   viewBox="0 0 128 128"
   width="128px"
   height="128px"
   version="1.1"
   id="svg5"
   sodipodi:docname="reddit.svg"
   inkscape:version="1.1.2 (0a00cf5339, 2022-02-04)"
   xmlns:inkscape="http://www.inkscape.org/namespaces/inkscape"
   xmlns:sodipodi="http://sodipodi.sourceforge.net/DTD/sodipodi-0.dtd"
   xmlns="http://www.w3.org/2000/svg"
   xmlns:svg="http://www.w3.org/2000/svg">
  <defs
     id="defs9" />
  <sodipodi:namedview
     id="namedview7"
     pagecolor="#ffffff"
     bordercolor="#666666"
     borderopacity="1.0"
     inkscape:pageshadow="2"
     inkscape:pageopacity="0.0"
     inkscape:pagecheckerboard="0"
     showgrid="false"
     inkscape:zoom="1.4556456"
     inkscape:cx="-59.423805"
     inkscape:cy="188.91961"
     inkscape:window-width="1366"
     inkscape:window-height="699"
     inkscape:window-x="0"
     inkscape:window-y="32"
     inkscape:window-maximized="1"
     inkscape:current-layer="svg5" />
  <g
     id="surface208755093"
     style="fill:#ffffff"
     transform="matrix(1.494686,0,0,1.494686,-31.659905,-31.659905)">
    <path
       style="fill:#ffffff;fill-opacity:1;fill-rule:nonzero;stroke:none"
       d="M 64,21.332031 C 40.4375,21.332031 21.332031,40.4375 21.332031,64 21.332031,87.5625 40.4375,106.66797 64,106.66797 87.5625,106.66797 106.66797,87.5625 106.66797,64 106.66797,40.4375 87.5625,21.332031 64,21.332031 Z M 66.964844,38.375 c 0.167968,-0.03125 0.347656,-0.02734 0.523437,0.01172 l 10.460938,2.089843 c 0.664062,-1.167968 1.875,-1.953124 3.222656,-2.089843 2.34375,-0.253907 4.441406,1.441406 4.695313,3.785156 0.253906,2.347656 -1.4375,4.445313 -3.785157,4.699219 -2.34375,0.253906 -4.445312,-1.445313 -4.699219,-3.789063 l -9.128906,-1.917969 -2.769531,13.3125 c 5.867187,0.128907 11.570313,1.941407 16.429687,5.25 1.101563,-1.050781 2.554688,-1.675781 4.082032,-1.730468 3.449218,-0.113282 6.332031,2.566406 6.457031,6.003906 0.04297,2.398438 -1.304687,4.601562 -3.445313,5.671875 0.04297,0.628906 0.04297,1.253906 0,1.878906 0,9.566407 -11.136718,17.332031 -24.871093,17.332031 -13.738281,0 -24.871094,-7.773437 -24.871094,-17.332031 -0.03906,-0.625 -0.03906,-1.25 0,-1.878906 -0.621094,-0.273437 -1.1875,-0.664063 -1.675781,-1.121094 -2.511719,-2.355469 -2.628906,-6.300781 -0.273438,-8.804687 2.355469,-2.511719 6.296875,-2.628906 8.800782,-0.273438 4.921874,-3.332031 10.703124,-5.15625 16.644531,-5.25 L 65.910156,39.41797 V 39.39063 C 66.03125,38.851562 66.457031,38.46875 66.964844,38.375 Z M 54.054688,64 c -2.355469,0 -4.265626,1.910156 -4.265626,4.265625 0,2.359375 1.910157,4.273437 4.265626,4.273437 2.359374,0 4.273437,-1.914062 4.273437,-4.273437 C 58.328125,65.910156 56.414062,64 54.054688,64 Z m 19.765624,0 c -2.359374,0 -4.269531,1.910156 -4.269531,4.265625 0,2.359375 1.910157,4.273437 4.269531,4.273437 2.355469,0 4.269532,-1.914062 4.269532,-4.273437 C 78.089844,65.910156 76.175781,64 73.820312,64 Z M 54.375,78.117188 c -0.257812,0 -0.511719,0.08984 -0.726562,0.265624 -0.488282,0.402344 -0.5625,1.136719 -0.160157,1.625 3.035157,2.277344 6.746094,3.445313 10.542969,3.285157 3.796875,0.160156 7.507812,-1.003907 10.542969,-3.285157 v 0.164063 c 0.464843,-0.457031 0.476562,-1.21875 0.01953,-1.6875 -0.457031,-0.464844 -1.21875,-0.476563 -1.683594,-0.01953 -2.597656,1.855468 -5.738281,2.769531 -8.925781,2.601562 -3.179687,0.148438 -6.304687,-0.808594 -8.875,-2.683594 C 54.894531,78.207031 54.632812,78.117188 54.375,78.117188 Z m 0,0"
       id="path2" />
  </g>
</svg>
