<?xml version="1.0" encoding="UTF-8"?>
<svg viewBox="0 0 128 128" xmlns="http://www.w3.org/2000/svg">
<g transform="matrix(1.4947 0 0 1.4947 -31.66 -31.66)">
<path d="m64 21.332c-23.562 0-42.668 19.105-42.668 42.668s19.105 42.668 42.668 42.668 42.668-19.105 42.668-42.668-19.105-42.668-42.668-42.668zm2.9648 17.043c0.16797-0.03125 0.34766-0.02734 0.52344 0.01172l10.461 2.0898c0.66406-1.168 1.875-1.9531 3.2227-2.0898 2.3438-0.25391 4.4414 1.4414 4.6953 3.7852 0.25391 2.3477-1.4375 4.4453-3.7852 4.6992-2.3438 0.25391-4.4453-1.4453-4.6992-3.7891l-9.1289-1.918-2.7695 13.312c5.8672 0.12891 11.57 1.9414 16.43 5.25 1.1016-1.0508 2.5547-1.6758 4.082-1.7305 3.4492-0.11328 6.332 2.5664 6.457 6.0039 0.04297 2.3984-1.3047 4.6016-3.4453 5.6719 0.04297 0.62891 0.04297 1.2539 0 1.8789 0 9.5664-11.137 17.332-24.871 17.332-13.738 0-24.871-7.7734-24.871-17.332-0.03906-0.625-0.03906-1.25 0-1.8789-0.62109-0.27344-1.1875-0.66406-1.6758-1.1211-2.5117-2.3555-2.6289-6.3008-0.27344-8.8047 2.3555-2.5117 6.2969-2.6289 8.8008-0.27344 4.9219-3.332 10.703-5.1562 16.645-5.25l3.1484-14.805v-0.02734c0.12109-0.53907 0.54688-0.92188 1.0547-1.0156zm-12.91 25.625c-2.3555 0-4.2656 1.9102-4.2656 4.2656 0 2.3594 1.9102 4.2734 4.2656 4.2734 2.3594 0 4.2734-1.9141 4.2734-4.2734 0-2.3555-1.9141-4.2656-4.2734-4.2656zm19.766 0c-2.3594 0-4.2695 1.9102-4.2695 4.2656 0 2.3594 1.9102 4.2734 4.2695 4.2734 2.3555 0 4.2695-1.9141 4.2695-4.2734 0-2.3555-1.9141-4.2656-4.2695-4.2656zm-19.445 14.117c-0.25781 0-0.51172 0.08984-0.72656 0.26562-0.48828 0.40234-0.5625 1.1367-0.16016 1.625 3.0352 2.2773 6.7461 3.4453 10.543 3.2852 3.7969 0.16016 7.5078-1.0039 10.543-3.2852v0.16406c0.46484-0.45703 0.47656-1.2188 0.01953-1.6875-0.45703-0.46484-1.2188-0.47656-1.6836-0.01953-2.5977 1.8555-5.7383 2.7695-8.9258 2.6016-3.1797 0.14844-6.3047-0.80859-8.875-2.6836-0.21484-0.17578-0.47656-0.26562-0.73437-0.26562z" fill="#fff"/>
</g>
</svg>
