<?xml version="1.0" encoding="UTF-8"?>
<svg viewBox="0 0 128 128" xmlns="http://www.w3.org/2000/svg">
<g transform="matrix(1.2191 0 0 1.2191 -14.023 -14.023)">
<path d="m64 12c-28.719 0-52 23.281-52 52 0 0.47266 0.02344 0.94141 0.03516 1.4141l25.277 8.8672c2.9258-3.8125 7.5117-6.2812 12.688-6.2812 0.36328 0 0.71875 0.03125 1.0781 0.05469l7.043-12.676c-0.078125-0.78125-0.12109-1.5742-0.12109-2.3789 0-12.703 10.297-23 23-23s23 10.297 23 23-10.297 23-23 23c-1.2578 0-2.4805-0.125-3.6836-0.32031l-11.375 7.1094c0.027344 0.40234 0.058594 0.80078 0.058594 1.2109 0 8.8359-7.1641 16-16 16s-16-7.1641-16-16c0-0.51562 0.03125-1.0234 0.07813-1.5273l-21.426-10.246c3.9453 24.809 25.43 43.773 51.348 43.773 28.719 0 52-23.281 52-52s-23.281-52-52-52zm17 26c-8.2852 0-15 6.7148-15 15s6.7148 15 15 15 15-6.7148 15-15-6.7148-15-15-15zm0 8c3.8672 0 7 3.1328 7 7s-3.1328 7-7 7-7-3.1328-7-7 3.1328-7 7-7zm-31 28c-2.4922 0-4.7383 0.94531-6.4922 2.4531l6.8711 2.4102c2.1523 0.67578 3.6211 2.6719 3.6211 4.9297 0 3.8047-3.9688 6.3086-7.4023 4.668l-6.457-3.0898c0.67188 4.8672 4.8047 8.6289 9.8594 8.6289 5.5234 0 10-4.4766 10-10s-4.4766-10-10-10z" fill="#fff"/>
</g>
</svg>
