<?xml version="1.0" encoding="UTF-8"?>
<svg viewBox="0 0 50 50" xmlns="http://www.w3.org/2000/svg">
<path d="m50.062 10.438c-1.8477 0.82031-3.8281 1.3711-5.9102 1.6211 2.125-1.2734 3.7578-3.2891 4.5234-5.6875-1.9844 1.1758-4.1914 2.0312-6.5312 2.4922-1.875-2-4.5469-3.2461-7.5039-3.2461-5.6797 0-10.285 4.6016-10.285 10.281 0 0.80469 0.09375 1.5898 0.26953 2.3438-8.5469-0.42969-16.121-4.5234-21.195-10.746-0.88672 1.5234-1.3906 3.2891-1.3906 5.1719 0 3.5664 1.8125 6.7148 4.5742 8.5625-1.6875-0.054688-3.2734-0.51953-4.6602-1.2891v0.12891c0 4.9844 3.5469 9.1367 8.2461 10.086-0.85938 0.23438-1.7695 0.35938-2.707 0.35938-0.66406 0-1.3086-0.0625-1.9375-0.1875 1.3125 4.082 5.1094 7.0625 9.6055 7.1445-3.5156 2.7578-7.9492 4.3984-12.77 4.3984-0.83203 0-1.6484-0.046875-2.4492-0.14453 4.5469 2.9219 9.9531 4.6211 15.762 4.6211 18.914 0 29.258-15.668 29.258-29.254 0-0.44531-0.011719-0.89453-0.027344-1.332 2.0078-1.4492 3.75-3.2617 5.1289-5.3242z" fill="#fff"/>
</svg>
