<?xml version="1.0" encoding="UTF-8"?>
<svg viewBox="0 0 30 30" xmlns="http://www.w3.org/2000/svg">
<path d="m15 0.071473c-2.4246 0-5.429 0.76903-7.6708 2.1163-0.16173 0.094547-0.60575 0.3993-0.83341 0.67548v0.00243c2.1385-2.3587 8.3711 2.6156 8.5042 2.7213v0.00243c0.13311-0.10574 6.3657-5.08 8.5042-2.7238-0.2289-0.27618-0.67287-0.57969-0.83584-0.67548-2.2405-1.3448-4.8631-2.1188-7.6659-2.1188zm-9.4032 3.8609c-0.5039 0.081174-1.0678 0.40268-1.5502 0.92331-2.4669 2.6635-3.9751 6.2256-3.9751 10.142 0 3.8671 1.4713 7.3865 3.8828 10.037-0.79121-3.8292-0.071299-6.5279 2.0896-10.037 2.1646-3.5132 5.97-7.4643 5.97-7.4643-3.14-2.9646-5.3711-3.4952-5.9384-3.6009-0.14929-0.027991-0.3107-0.027058-0.47867 0zm-1.6425 21.103v0.0024 0.0024c2.7307 3.0006 6.6853 4.8887 11.048 4.8887 4.3753 0 8.3138-1.8845 11.046-4.8838v-0.0024c2.411-2.6523 3.8803-6.1745 3.8803-10.042 0-3.9162-1.5069-7.4771-3.9751-10.142-0.64317-0.69418-1.4317-1.0353-2.0289-0.92331-0.56604 0.10699-2.7984 0.63761-5.9384 3.6009 0 0 3.8053 3.9511 5.97 7.4643 2.1597 3.5107 2.8808 6.2082 2.0896 10.037-0.0075-0.04354-0.31006-2.0086-2.3204-4.7891-1.5712-2.1684-6.2372-7.3627-8.7253-9.7264-2.4881 2.3637-7.1541 7.5531-8.7253 9.724-2.0104 2.778-2.313 4.7443-2.3204 4.7891z" fill="#fff" stroke-width="1.244"/>
</svg>
