<?xml version="1.0" encoding="UTF-8" standalone="no"?>
<svg
   viewBox="0 0 128 128"
   width="128px"
   height="128px"
   version="1.1"
   id="svg5"
   sodipodi:docname="github.svg"
   inkscape:version="1.1.2 (0a00cf5339, 2022-02-04)"
   xmlns:inkscape="http://www.inkscape.org/namespaces/inkscape"
   xmlns:sodipodi="http://sodipodi.sourceforge.net/DTD/sodipodi-0.dtd"
   xmlns="http://www.w3.org/2000/svg"
   xmlns:svg="http://www.w3.org/2000/svg">
  <defs
     id="defs9" />
  <sodipodi:namedview
     id="namedview7"
     pagecolor="#ffffff"
     bordercolor="#666666"
     borderopacity="1.0"
     inkscape:pageshadow="2"
     inkscape:pageopacity="0.0"
     inkscape:pagecheckerboard="0"
     showgrid="false"
     inkscape:zoom="2.9112912"
     inkscape:cx="110.08861"
     inkscape:cy="70.415491"
     inkscape:window-width="1366"
     inkscape:window-height="699"
     inkscape:window-x="0"
     inkscape:window-y="32"
     inkscape:window-maximized="1"
     inkscape:current-layer="svg5" />
  <g
     id="surface208366166"
     style="fill:#ffffff"
     transform="matrix(1.4911638,0,0,1.4911638,-31.434481,-30.918379)">
    <path
       style="fill:#ffffff;fill-opacity:1;fill-rule:nonzero;stroke:none"
       d="m 64,21.332031 c 23.5625,0 42.66797,19.105469 42.66797,42.667969 0,18.945312 -12.351564,34.996094 -29.441408,40.56641 0.0078,-0.0156 0.01563,-0.0391 0.01563,-0.0391 0,0 -2.882813,-1.35156 -2.820313,-3.75781 0.06641,-2.652342 0,-8.839842 0,-11.109374 0,-3.898437 -2.46875,-6.660156 -2.46875,-6.660156 0,0 19.351563,0.214844 19.351563,-20.429688 0,-7.964843 -4.164063,-12.109374 -4.164063,-12.109374 0,0 2.1875,-8.503907 -0.757813,-12.109376 -3.300781,-0.355468 -9.210937,3.152344 -11.734374,4.792969 0,0 -4,-1.640625 -10.648438,-1.640625 -6.652344,0 -10.652344,1.640625 -10.652344,1.640625 -2.523437,-1.640625 -8.433594,-5.148437 -11.734375,-4.792969 -2.941406,3.605469 -0.757812,12.109376 -0.757812,12.109376 0,0 -4.164063,4.144531 -4.164063,12.109374 C 36.691406,83.214844 56.042969,83 56.042969,83 c 0,0 -1.949219,2.203125 -2.375,5.441406 -1.351563,0.457032 -3.335938,1.023438 -4.941407,1.023438 -4.199218,0 -7.394531,-4.082032 -8.566406,-5.96875 -1.152344,-1.863282 -3.519531,-3.425782 -5.726562,-3.425782 -1.449219,0 -2.160156,0.726563 -2.160156,1.554688 0,0.832031 2.039062,1.410156 3.382812,2.949219 2.832031,3.246093 2.78125,10.550781 12.878906,10.550781 1.097656,0 3.335938,-0.273438 5.019532,-0.496094 -0.01172,2.296875 -0.01172,4.722656 0.02344,6.140624 0.05859,2.40625 -2.820313,3.75781 -2.820313,3.75781 0,0 0.0078,0.0234 0.01172,0.0391 C 33.683594,98.996094 21.332031,82.945312 21.332031,64 21.332031,40.4375 40.433594,21.332031 64,21.332031 Z m 0,0"
       id="path2" />
  </g>
</svg>
