<?xml version="1.0" encoding="UTF-8"?>
<svg xmlns="http://www.w3.org/2000/svg" xmlns:xlink="http://www.w3.org/1999/xlink" viewBox="0 0 128 128" width="128px" height="128px">
<g id="surface208366166">
<path style=" stroke:none;fill-rule:nonzero;fill:rgb(100%,100%,100%);fill-opacity:1;" d="M 64 21.332031 C 87.5625 21.332031 106.667969 40.4375 106.667969 64 C 106.667969 82.945312 94.316406 98.996094 77.226562 104.566406 C 77.234375 104.550781 77.242188 104.527344 77.242188 104.527344 C 77.242188 104.527344 74.359375 103.175781 74.421875 100.769531 C 74.488281 98.117188 74.421875 91.929688 74.421875 89.660156 C 74.421875 85.761719 71.953125 83 71.953125 83 C 71.953125 83 91.304688 83.214844 91.304688 62.570312 C 91.304688 54.605469 87.140625 50.460938 87.140625 50.460938 C 87.140625 50.460938 89.328125 41.957031 86.382812 38.351562 C 83.082031 37.996094 77.171875 41.503906 74.648438 43.144531 C 74.648438 43.144531 70.648438 41.503906 64 41.503906 C 57.347656 41.503906 53.347656 43.144531 53.347656 43.144531 C 50.824219 41.503906 44.914062 37.996094 41.613281 38.351562 C 38.671875 41.957031 40.855469 50.460938 40.855469 50.460938 C 40.855469 50.460938 36.691406 54.605469 36.691406 62.570312 C 36.691406 83.214844 56.042969 83 56.042969 83 C 56.042969 83 54.09375 85.203125 53.667969 88.441406 C 52.316406 88.898438 50.332031 89.464844 48.726562 89.464844 C 44.527344 89.464844 41.332031 85.382812 40.160156 83.496094 C 39.007812 81.632812 36.640625 80.070312 34.433594 80.070312 C 32.984375 80.070312 32.273438 80.796875 32.273438 81.625 C 32.273438 82.457031 34.3125 83.035156 35.65625 84.574219 C 38.488281 87.820312 38.4375 95.125 48.535156 95.125 C 49.632812 95.125 51.871094 94.851562 53.554688 94.628906 C 53.542969 96.925781 53.542969 99.351562 53.578125 100.769531 C 53.636719 103.175781 50.757812 104.527344 50.757812 104.527344 C 50.757812 104.527344 50.765625 104.550781 50.769531 104.566406 C 33.683594 98.996094 21.332031 82.945312 21.332031 64 C 21.332031 40.4375 40.433594 21.332031 64 21.332031 Z M 64 21.332031 "/>
</g>
</svg>
