<?xml version="1.0" encoding="UTF-8"?>
<svg xmlns="http://www.w3.org/2000/svg" xmlns:xlink="http://www.w3.org/1999/xlink" viewBox="0 0 128 128" width="128px" height="128px">
<g id="surface208145561">
<path style=" stroke:none;fill-rule:nonzero;fill:rgb(100%,100%,100%);fill-opacity:1;" d="M 108.648438 33.523438 C 113.183594 38.226562 113.777344 45.703125 113.777344 64 C 113.777344 82.296875 113.183594 89.773438 108.648438 94.476562 C 104.113281 99.183594 99.386719 99.554688 64 99.554688 C 28.613281 99.554688 23.886719 99.183594 19.351562 94.476562 C 14.816406 89.773438 14.222656 82.296875 14.222656 64 C 14.222656 45.703125 14.816406 38.226562 19.351562 33.523438 C 23.886719 28.816406 28.613281 28.445312 64 28.445312 C 99.386719 28.445312 104.113281 28.816406 108.648438 33.523438 Z M 55.9375 79.070312 L 80.117188 64.769531 L 55.9375 50.691406 Z M 55.9375 79.070312 "/>
</g>
</svg>
