<?xml version="1.0" encoding="UTF-8"?>
<svg xmlns="http://www.w3.org/2000/svg" xmlns:xlink="http://www.w3.org/1999/xlink" viewBox="0 0 64 64" width="64px" height="64px">
<g id="surface200471171">
<path style=" stroke:none;fill-rule:nonzero;fill:rgb(100%,100%,100%);fill-opacity:1;" d="M 48.585938 16.957031 C 48.585938 16.957031 56 25.546875 56 41.019531 L 56 44.261719 C 56 44.261719 46.632812 50.367188 43.78125 50.367188 L 41.011719 46.339844 C 42.734375 45.570312 45.078125 44.230469 45.078125 44.230469 L 44.222656 43.566406 C 44.222656 43.566406 38.734375 46.109375 32 46.109375 C 25.265625 46.109375 19.78125 43.566406 19.78125 43.566406 L 18.921875 44.230469 C 18.921875 44.230469 21.269531 45.570312 22.988281 46.339844 L 20.222656 50.367188 C 17.367188 50.367188 8 44.261719 8 44.261719 L 8 41.019531 C 8 25.546875 15.414062 16.957031 15.414062 16.957031 C 15.414062 16.957031 20.488281 14.503906 25.171875 13.855469 L 26.625 16.613281 C 26.625 16.613281 28.9375 16.078125 32 16.078125 C 35.0625 16.078125 37.375 16.613281 37.375 16.613281 L 38.828125 13.855469 C 43.511719 14.503906 48.585938 16.957031 48.585938 16.957031 Z M 24.007812 38.757812 C 26.371094 38.757812 28.28125 36.609375 28.28125 33.957031 C 28.28125 31.304688 26.367188 29.15625 24.007812 29.15625 C 21.648438 29.15625 19.734375 31.304688 19.734375 33.957031 C 19.734375 36.609375 21.648438 38.757812 24.007812 38.757812 Z M 39.992188 38.757812 C 42.351562 38.757812 44.265625 36.609375 44.265625 33.957031 C 44.265625 31.304688 42.351562 29.15625 39.992188 29.15625 C 37.628906 29.15625 35.71875 31.304688 35.71875 33.957031 C 35.71875 36.609375 37.628906 38.757812 39.992188 38.757812 Z M 39.992188 38.757812 "/>
</g>
</svg>
