<?xml version="1.0" encoding="UTF-8"?>
<svg xmlns="http://www.w3.org/2000/svg" xmlns:xlink="http://www.w3.org/1999/xlink" viewBox="0 0 128 128" width="128px" height="128px">
<g id="surface208358478">
<path style=" stroke:none;fill-rule:nonzero;fill:rgb(100%,100%,100%);fill-opacity:1;" d="M 97.167969 33.914062 C 97.167969 33.914062 112 51.09375 112 82.039062 L 112 88.527344 C 112 88.527344 93.269531 100.734375 87.5625 100.734375 L 82.023438 92.679688 C 85.464844 91.140625 90.160156 88.464844 90.160156 88.464844 L 88.445312 87.136719 C 88.445312 87.136719 77.46875 92.21875 64 92.21875 C 50.535156 92.21875 39.558594 87.136719 39.558594 87.136719 L 37.84375 88.464844 C 37.84375 88.464844 42.539062 91.140625 45.980469 92.679688 L 40.441406 100.734375 C 34.730469 100.734375 16 88.527344 16 88.527344 L 16 82.039062 C 16 51.09375 30.832031 33.914062 30.832031 33.914062 C 30.832031 33.914062 40.976562 29.003906 50.347656 27.710938 L 53.253906 33.222656 C 53.253906 33.222656 57.875 32.152344 64 32.152344 C 70.125 32.152344 74.746094 33.222656 74.746094 33.222656 L 77.652344 27.710938 C 87.023438 29.003906 97.167969 33.914062 97.167969 33.914062 Z M 48.019531 77.515625 C 52.738281 77.515625 56.566406 73.21875 56.566406 67.914062 C 56.566406 62.613281 52.738281 58.3125 48.019531 58.3125 C 43.296875 58.3125 39.46875 62.613281 39.46875 67.914062 C 39.46875 73.21875 43.296875 77.515625 48.019531 77.515625 Z M 79.980469 77.515625 C 84.703125 77.515625 88.53125 73.21875 88.53125 67.914062 C 88.53125 62.613281 84.703125 58.3125 79.980469 58.3125 C 75.261719 58.3125 71.433594 62.613281 71.433594 67.914062 C 71.433594 73.21875 75.261719 77.515625 79.980469 77.515625 Z M 79.980469 77.515625 "/>
</g>
</svg>
