<svg width="128" height="128" xmlns:xlink="http://www.w3.org/1999/xlink" xmlns="http://www.w3.org/2000/svg">
    <defs>
        <linearGradient id="prefix__a">
            <stop offset="0" stop-color="#393c93" stop-opacity=".2" />
            <stop offset="1" stop-color="#393c93" stop-opacity=".996" />
        </linearGradient>
        <linearGradient xlink:href="#prefix__a" id="prefix__b" x1="22.622" y1="62.852" x2="48.964" y2="62.852"
            gradientUnits="userSpaceOnUse" gradientTransform="translate(-34.006 -31.76) scale(1.50909)" />
    </defs>
    <g paint-order="markers fill stroke">
        <path
            d="M109.284 55.948a45.273 45.273 0 01-34.415 41.048 45.273 45.273 0 01-49.481-20.514 45.273 45.273 0 014.719-53.356"
            fill="none" stroke="#ffff8f" stroke-width="37.727" stroke-opacity=".992" />
        <path
            d="M41.22 39.787s-13.756-8.441-20.73-1.467c-6.975 6.974-17.492-4.775-17.492-4.775S.913 41.212.431 45.141c-.478 3.89-.31 11.751-.31 11.751s11.74-7.702 14.588 2.926c2.847 10.627 22.95-6.607 22.95-6.607s.25-4.1.652-6.109c.486-2.427 2.909-7.315 2.909-7.315z"
            fill="#0b77bb" fill-opacity=".996" />
        <path
            d="M39.876 63.695s-1.175-3.192-1.537-4.848c-.402-1.84-.697-5.607-.697-5.607s-20.267 16.552-22.775 6.523C12.225 49.198.141 56.804.141 56.804s.39 4.64.748 6.939c.314 2.02 1.227 6.01 1.227 6.01s4.963-11.112 15.642-.433c10.68 10.68 22.118-5.625 22.118-5.625z"
            fill="#393c93" fill-opacity=".996" stroke="url(#prefix__b)" stroke-width=".015" />
        <path
            d="M50.367 75.53s2.212 1.319 3.396 1.815c1.476.62 4.582 1.436 4.582 1.436S47.007 87.618 40 94.624c-7.006 7.007-24.839-.148-24.839-.148l-4.257-5.633s13.948 4.444 21.41.136c3.73-2.154 10-9.078 13.555-11.442 1.756-1.168 4.497-2.007 4.497-2.006z"
            fill="#19984d" fill-opacity=".949" />
        <path
            d="M58.351 78.794s6.001 1.39 12.34-.12c4.647-1.108 9.476-4.675 9.476-4.675s5.725 9.733 6.429 15.184c.466 3.612 1.082 8.312-1.565 10.815-4.316 4.082-11.843.965-17.753 1.565-1.976.2-4.026.077-5.918.68-2.514.8-4.742 2.347-6.938 3.809-2.485 1.654-4.127 4.79-7.007 5.578-4.206 1.15-12.957-1.806-12.957-1.806s-6.164-3.383-8.94-5.519c-4.936-3.798-10.363-9.821-10.363-9.821s17.922 6.955 25.494-.57c9.11-9.052 17.702-15.12 17.702-15.12z"
            fill="#fcf34c" />
    </g>
</svg>