<svg width="128" height="128" xmlns:xlink="http://www.w3.org/1999/xlink" xmlns="http://www.w3.org/2000/svg"><defs><linearGradient id="a"><stop style="stop-color:#393c93;stop-opacity:.2" offset="0"/><stop style="stop-color:#393c93;stop-opacity:.99607843" offset="1"/></linearGradient><linearGradient xlink:href="#a" id="b" x1="22.622" y1="62.852" x2="48.964" y2="62.852" gradientUnits="userSpaceOnUse"/></defs><g style="display:inline"><path style="display:inline;fill:red;fill-opacity:0;stroke:#ffff8f;stroke-width:25;stroke-linecap:butt;stroke-linejoin:miter;stroke-dasharray:none;stroke-opacity:.99215686;paint-order:markers fill stroke;stop-color:#000" d="M111.288-2.96a30 30 0 0 1-4.316 35.233 30 30 0 0 1-34.903 6.454A30 30 0 0 1 55.439 7.37" transform="rotate(32.994)"/><path style="display:inline;fill:#0b77bb;fill-opacity:.99607843;stroke:#000;stroke-width:0;stroke-linecap:butt;stroke-linejoin:miter;stroke-dasharray:none;stroke-opacity:0;paint-order:markers fill stroke;stop-color:#000" d="M49.849 47.41s-9.116-5.593-13.737-.972c-4.622 4.622-11.59-3.164-11.59-3.164s-1.383 5.08-1.702 7.684c-.317 2.578-.206 7.787-.206 7.787s7.78-5.103 9.667 1.939c1.887 7.042 15.208-4.378 15.208-4.378s.166-2.718.432-4.048c.322-1.609 1.928-4.848 1.928-4.848z"/><path style="fill:#393c93;fill-opacity:.996078;stroke:url(#b);stroke-width:.01;stroke-linecap:butt;stroke-linejoin:miter;stroke-dasharray:none;stroke-opacity:1;paint-order:markers fill stroke;stop-color:#000" d="M48.958 63.253s-.778-2.115-1.018-3.212c-.267-1.22-.462-3.716-.462-3.716s-13.43 10.968-15.092 4.323c-1.75-7.001-9.759-1.961-9.759-1.961s.26 3.075.496 4.598c.209 1.339.813 3.983.813 3.983s3.289-7.364 10.366-.287c7.076 7.076 14.656-3.728 14.656-3.728z"/><path style="fill:#19984d;fill-opacity:.94901961;stroke:none;stroke-width:0;stroke-linecap:butt;stroke-linejoin:miter;stroke-dasharray:none;stroke-opacity:1;paint-order:markers fill stroke;stop-color:#000" d="M55.91 71.096s1.466.873 2.25 1.202c.978.41 3.036.952 3.036.952s-7.512 5.856-12.155 10.498c-4.643 4.643-16.46-.098-16.46-.098l-2.82-3.733s9.242 2.945 14.187.09c2.472-1.427 6.626-6.015 8.982-7.582 1.164-.773 2.98-1.33 2.98-1.33z"/><path style="fill:#fcf34c;fill-opacity:1;stroke:none;stroke-width:0;stroke-linecap:butt;stroke-linejoin:miter;stroke-dasharray:none;stroke-opacity:1;paint-order:markers fill stroke;stop-color:#000" d="M61.2 73.258s3.977.922 8.178-.08c3.079-.733 6.279-3.097 6.279-3.097s3.794 6.45 4.26 10.062c.31 2.393.717 5.508-1.037 7.166-2.86 2.705-7.847.64-11.764 1.037-1.31.133-2.668.052-3.922.45-1.665.531-3.142 1.556-4.597 2.525-1.647 1.096-2.735 3.174-4.643 3.696-2.787.762-8.586-1.196-8.586-1.196s-4.085-2.242-5.924-3.658c-3.27-2.516-6.867-6.508-6.867-6.508s11.876 4.61 16.893-.377c6.037-5.998 11.73-10.02 11.73-10.02z"/></g></svg>