<?xml version="1.0" encoding="UTF-8"?>
<svg xmlns="http://www.w3.org/2000/svg" xmlns:xlink="http://www.w3.org/1999/xlink" viewBox="0 0 128 128" width="128px" height="128px">
<g id="surface208792227">
<path style=" stroke:none;fill-rule:nonzero;fill:rgb(100%,100%,100%);fill-opacity:1;" d="M 64 12 C 35.28125 12 12 35.28125 12 64 C 12 64.472656 12.023438 64.941406 12.035156 65.414062 L 37.3125 74.28125 C 40.238281 70.46875 44.824219 68 50 68 C 50.363281 68 50.71875 68.03125 51.078125 68.054688 L 58.121094 55.378906 C 58.042969 54.597656 58 53.804688 58 53 C 58 40.296875 68.296875 30 81 30 C 93.703125 30 104 40.296875 104 53 C 104 65.703125 93.703125 76 81 76 C 79.742188 76 78.519531 75.875 77.316406 75.679688 L 65.941406 82.789062 C 65.96875 83.191406 66 83.589844 66 84 C 66 92.835938 58.835938 100 50 100 C 41.164062 100 34 92.835938 34 84 C 34 83.484375 34.03125 82.976562 34.078125 82.472656 L 12.652344 72.226562 C 16.597656 97.035156 38.082031 116 64 116 C 92.71875 116 116 92.71875 116 64 C 116 35.28125 92.71875 12 64 12 Z M 81 38 C 72.714844 38 66 44.714844 66 53 C 66 61.285156 72.714844 68 81 68 C 89.285156 68 96 61.285156 96 53 C 96 44.714844 89.285156 38 81 38 Z M 81 46 C 84.867188 46 88 49.132812 88 53 C 88 56.867188 84.867188 60 81 60 C 77.132812 60 74 56.867188 74 53 C 74 49.132812 77.132812 46 81 46 Z M 50 74 C 47.507812 74 45.261719 74.945312 43.507812 76.453125 L 50.378906 78.863281 C 52.53125 79.539062 54 81.535156 54 83.792969 C 54 87.597656 50.03125 90.101562 46.597656 88.460938 L 40.140625 85.371094 C 40.8125 90.238281 44.945312 94 50 94 C 55.523438 94 60 89.523438 60 84 C 60 78.476562 55.523438 74 50 74 Z M 50 74 "/>
</g>
</svg>
