<?xml version="1.0" encoding="UTF-8"?>
<svg xmlns="http://www.w3.org/2000/svg" xmlns:xlink="http://www.w3.org/1999/xlink" viewBox="0 0 48 48" width="48px" height="48px">
<g id="surface200270175">
<path style=" stroke:none;fill-rule:nonzero;fill:rgb(100%,100%,100%);fill-opacity:1;" d="M 40.144531 13.070312 C 41.785156 14.757812 42 17.4375 42 24 C 42 30.5625 41.785156 33.242188 40.144531 34.929688 C 38.503906 36.617188 36.796875 36.75 24 36.75 C 11.203125 36.75 9.496094 36.617188 7.855469 34.929688 C 6.214844 33.242188 6 30.5625 6 24 C 6 17.4375 6.214844 14.757812 7.855469 13.070312 C 9.496094 11.382812 11.203125 11.25 24 11.25 C 36.796875 11.25 38.503906 11.382812 40.144531 13.070312 Z M 20.960938 29.5625 L 30.070312 24.285156 L 20.960938 19.089844 Z M 20.960938 29.5625 "/>
</g>
</svg>
