<?xml version="1.0" encoding="UTF-8"?>
<svg xmlns="http://www.w3.org/2000/svg" xmlns:xlink="http://www.w3.org/1999/xlink" viewBox="0 0 50 50" width="50px" height="50px">
<g id="surface203710905">
<path style=" stroke:none;fill-rule:nonzero;fill:rgb(100%,100%,100%);fill-opacity:1;" d="M 25 3 C 13.589844 3 4.210938 11.679688 3.109375 22.800781 L 14.300781 28.527344 C 15.429688 27.578125 16.898438 27 18.5 27 L 18.550781 27 C 18.941406 26.398438 19.390625 25.648438 19.859375 24.871094 C 20.839844 23.257812 21.941406 21.4375 23.019531 20.039062 C 23.257812 15.570312 26.96875 12 31.5 12 C 36.191406 12 40 15.808594 40 20.5 C 40 25.03125 36.429688 28.742188 31.960938 28.980469 C 30.5625 30.058594 28.75 31.160156 27.132812 32.128906 C 26.351562 32.609375 25.601562 33.058594 25 33.449219 L 25 33.5 C 25 37.089844 22.089844 40 18.5 40 C 14.910156 40 12 37.089844 12 33.5 C 12 33.328125 12.007812 33.171875 12.019531 33 L 3.28125 28.519531 C 4.96875 39 14.050781 47 25 47 C 37.148438 47 47 37.148438 47 25 C 47 12.851562 37.148438 3 25 3 Z M 31.5 14 C 27.921875 14 25 16.921875 25 20.5 C 25 24.078125 27.921875 27 31.5 27 C 35.078125 27 38 24.078125 38 20.5 C 38 16.921875 35.078125 14 31.5 14 Z M 31.5 16 C 33.988281 16 36 18.011719 36 20.5 C 36 22.988281 33.988281 25 31.5 25 C 29.011719 25 27 22.988281 27 20.5 C 27 18.011719 29.011719 16 31.5 16 Z M 18.5 29 C 17.710938 29 16.960938 29.199219 16.320312 29.570312 L 19.640625 31.269531 C 20.871094 31.898438 21.351562 33.410156 20.730469 34.640625 C 20.28125 35.5 19.410156 36 18.5 36 C 18.109375 36 17.730469 35.910156 17.359375 35.730469 L 14.027344 34.019531 C 14.289062 36.257812 16.191406 38 18.5 38 C 20.988281 38 23 35.988281 23 33.5 C 23 31.011719 20.988281 29 18.5 29 Z M 18.5 29 "/>
</g>
</svg>
